<?xml version="1.0" standalone="no"?>
<svg xmlns:xlink="http://www.w3.org/1999/xlink" id="wave" style="transform:rotate(0deg); transition: 0.3s" viewBox="0 0 1440 180" version="1.1" xmlns="http://www.w3.org/2000/svg"><defs><linearGradient id="sw-gradient-0" x1="0" x2="0" y1="1" y2="0"><stop stop-color="rgba(61, 86, 86, 1)" offset="0%"/><stop stop-color="rgba(61, 86, 86, 1)" offset="100%"/></linearGradient></defs><path style="transform:translate(0, 0px); opacity:1" fill="url(#sw-gradient-0)" d="M0,36L60,51C120,66,240,96,360,114C480,132,600,138,720,129C840,120,960,96,1080,72C1200,48,1320,24,1440,12C1560,0,1680,0,1800,15C1920,30,2040,60,2160,63C2280,66,2400,42,2520,30C2640,18,2760,18,2880,27C3000,36,3120,54,3240,66C3360,78,3480,84,3600,75C3720,66,3840,42,3960,36C4080,30,4200,42,4320,66C4440,90,4560,126,4680,138C4800,150,4920,138,5040,123C5160,108,5280,90,5400,69C5520,48,5640,24,5760,27C5880,30,6000,60,6120,63C6240,66,6360,42,6480,42C6600,42,6720,66,6840,66C6960,66,7080,42,7200,45C7320,48,7440,78,7560,75C7680,72,7800,36,7920,27C8040,18,8160,36,8280,54C8400,72,8520,90,8580,99L8640,108L8640,180L8580,180C8520,180,8400,180,8280,180C8160,180,8040,180,7920,180C7800,180,7680,180,7560,180C7440,180,7320,180,7200,180C7080,180,6960,180,6840,180C6720,180,6600,180,6480,180C6360,180,6240,180,6120,180C6000,180,5880,180,5760,180C5640,180,5520,180,5400,180C5280,180,5160,180,5040,180C4920,180,4800,180,4680,180C4560,180,4440,180,4320,180C4200,180,4080,180,3960,180C3840,180,3720,180,3600,180C3480,180,3360,180,3240,180C3120,180,3000,180,2880,180C2760,180,2640,180,2520,180C2400,180,2280,180,2160,180C2040,180,1920,180,1800,180C1680,180,1560,180,1440,180C1320,180,1200,180,1080,180C960,180,840,180,720,180C600,180,480,180,360,180C240,180,120,180,60,180L0,180Z"/></svg>